<?xml version="1.0" encoding="utf-8"?>
<!-- Generator: Adobe Illustrator 25.3.1, SVG Export Plug-In . SVG Version: 6.00 Build 0)  -->
<svg version="1.1" id="Calque_2_1_" xmlns="http://www.w3.org/2000/svg" xmlns:xlink="http://www.w3.org/1999/xlink" x="0px"
	 y="0px" viewBox="0 0 226.7 148.7" style="enable-background:new 0 0 226.7 148.7;" xml:space="preserve">
<style type="text/css">
	.st0{fill:#2A2E46;}
	.st1{fill:#E84E0F;}
</style>
<g>
	<path class="st0" d="M0.4,18.1h8.8v56.7H0.4V18.1z"/>
	<path class="st0" d="M18.4,53.6V18.1h8.8V53c0,8.4,5.2,13.9,12.6,13.9c7.3,0,12.6-5.5,12.6-13.9V18.1h8.8v35.5
		c0,13.1-9.2,22.3-21.4,22.3C27.5,75.8,18.4,66.6,18.4,53.6z"/>
	<path class="st0" d="M105.3,26.8H89.6v48h-8.8v-48H65.2v-8.7h40V26.8z"/>
	<path class="st1" d="M142.2,66.1v8.7h-36.3v-2.5c23.2-26.9,26-31.5,26-38c0-5-3.2-8.3-8-8.3c-5,0-8.3,3.4-8.3,8.4v1.3H107v-1.3
		c0-10.1,6.8-17,16.8-17c9.9,0,16.8,7,16.8,16.9c0,7.4-2.8,13.4-18.2,31.9L142.2,66.1L142.2,66.1z"/>
</g>
<g>
	<path class="st0" d="M34.9,102.9c-0.2,10.4-7.3,17.7-17.3,17.7c-10.1,0-17.5-7.5-17.5-17.8C0.2,92.5,7.6,85,17.6,85
		c8.3,0,15.3,5.2,16.8,12.6h-4.5c-1.5-5-6.4-8.3-12.3-8.3c-7.6,0-13.1,5.6-13.1,13.6c0,8,5.3,13.6,13.1,13.6
		c6.3,0,11.3-3.8,12.5-9.4H16.4v-4.1H34.9z"/>
	<path class="st0" d="M55.9,93.3v4h-2.7c-4.9,0-7.6,3.2-7.6,8.3V120h-4.2V93.4h3l0.7,4.1c1.9-2.7,4.7-4.2,8.5-4.2H55.9z"/>
	<path class="st0" d="M84.4,108.3H61.7c0.7,4.9,4.3,8.2,9.4,8.2c3.7,0,6.7-1.7,8.3-4.6h4.4c-2.3,5.5-6.9,8.7-12.7,8.7
		c-7.7,0-13.6-6-13.6-13.9c0-7.9,5.8-13.9,13.6-13.9c8.1,0,13.4,6.2,13.4,14C84.4,107.3,84.4,107.8,84.4,108.3z M71,96.8
		c-4.8,0-8.4,3-9.3,7.7h18.5C79.3,99.7,75.7,96.8,71,96.8L71,96.8z"/>
	<path class="st0" d="M114.3,104.1v16h-4.2v-15c0-5.4-2.5-8.4-7.2-8.4c-4.6,0-8.1,3.8-8.1,8.8V120h-4.2V93.4h3l0.8,4.2
		c2-3,5.4-4.8,9.5-4.8C110.4,92.8,114.3,97.6,114.3,104.1z"/>
	<path class="st0" d="M120.3,106.7c0-8,6.1-13.9,14.1-13.9c8.1,0,14.1,5.9,14.1,13.9s-6.1,13.9-14.1,13.9
		C126.3,120.6,120.3,114.7,120.3,106.7z M144.2,106.7c0-5.7-4.1-9.8-9.8-9.8c-5.7,0-9.8,4.1-9.8,9.8s4.1,9.8,9.8,9.8
		C140.1,116.6,144.2,112.4,144.2,106.7z"/>
	<path class="st0" d="M168.9,92.8c8,0,13.7,5.9,13.7,13.9c0,7.9-5.7,13.9-13.7,13.9c-4.2,0-7.8-1.7-10.2-4.4l-0.6,3.8h-3.3V83.9h4.2
		v12.9C161.5,94.3,164.9,92.8,168.9,92.8L168.9,92.8z M178.4,106.7c0-5.7-4.1-9.8-9.8-9.8s-9.8,4.2-9.8,9.8c0,5.6,4.2,9.8,9.8,9.8
		C174.2,116.6,178.4,112.4,178.4,106.7z"/>
	<path class="st0" d="M189,83.9h4.2V120H189V83.9z"/>
	<path class="st0" d="M226.4,108.3h-22.7c0.7,4.9,4.3,8.2,9.4,8.2c3.7,0,6.6-1.7,8.3-4.6h4.4c-2.3,5.5-6.9,8.7-12.7,8.7
		c-7.7,0-13.6-6-13.6-13.9c0-7.9,5.9-13.9,13.6-13.9c8.1,0,13.4,6.2,13.4,14C226.5,107.3,226.4,107.8,226.4,108.3z M213.1,96.8
		c-4.8,0-8.4,3-9.3,7.7h18.5C221.4,99.7,217.8,96.8,213.1,96.8L213.1,96.8z"/>
</g>
<g>
	<path class="st0" d="M0,140.1v-8.2h2.9v8.1c0,1.6,1.1,2.7,2.6,2.7c1.5,0,2.6-1,2.6-2.7v-8.1h2.9v8.2c0,3.1-2.3,5.2-5.4,5.2
		C2.3,145.3,0,143.1,0,140.1z"/>
	<path class="st0" d="M22.2,138.8v6.2h-2.8v-5.7c0-1.5-0.6-2.3-1.8-2.3c-1.4,0-2.3,1-2.3,2.6v5.3h-2.8v-10.2h1.9l0.5,1.3
		c0.8-0.9,2-1.5,3.4-1.5C20.7,134.6,22.2,136.3,22.2,138.8z"/>
	<path class="st0" d="M23.9,134.8h2.8V145h-2.8V134.8z M23.9,130.9h2.7v2.6h-2.7V130.9z"/>
	<path class="st0" d="M38.1,134.8L34,145h-2.5l-4.1-10.2h2.9l2.5,6.8l2.4-6.8H38.1z"/>
	<path class="st0" d="M48.2,140.7h-7.7c0.2,1.4,1.1,2.1,2.5,2.1c0.9,0,1.7-0.4,2.2-1.2h2.9c-0.7,2.2-2.7,3.6-5,3.6
		c-3,0-5.3-2.3-5.3-5.4c0-3.1,2.3-5.4,5.3-5.4c3.1,0,5.3,2.4,5.3,5.3C48.3,140.2,48.2,140.4,48.2,140.7z M40.6,138.8h4.9
		c-0.4-1.2-1.3-1.9-2.5-1.9C41.8,136.9,40.9,137.6,40.6,138.8z"/>
	<path class="st0" d="M55.6,134.8v2.6h-1.2c-1.6,0-2.2,0.7-2.2,2.4v5.3h-2.8v-10.2h1.8l0.5,1.2c0.7-0.9,1.6-1.3,2.9-1.3H55.6z"/>
	<path class="st0" d="M55.6,141.7h2.7c0,0.9,0.7,1.4,1.7,1.4c0.8,0,1.4-0.3,1.4-1c0-0.7-0.9-0.9-2-1.1c-1.6-0.3-3.7-0.7-3.7-3.1
		c0-1.9,1.6-3.3,4.1-3.3c2.4,0,4.1,1.4,4.1,3.4h-2.6c0-0.8-0.6-1.2-1.5-1.2c-0.8,0-1.4,0.4-1.4,1c0,0.7,0.9,0.8,1.9,1
		c1.7,0.3,3.8,0.6,3.8,3.1c0,2.1-1.7,3.4-4.3,3.4C57.4,145.3,55.7,143.8,55.6,141.7z"/>
	<path class="st0" d="M65.4,134.8h2.8V145h-2.8V134.8z M65.4,130.9h2.7v2.6h-2.7V130.9z"/>
	<path class="st0" d="M76.3,142.6v2.4h-1.9c-2.2,0-3.6-1.4-3.6-3.6v-4.3h-1.8v-0.6l4-4.3h0.5v2.6h2.8v2.2h-2.8v4
		c0,1,0.6,1.6,1.6,1.6L76.3,142.6L76.3,142.6z"/>
	<path class="st0" d="M87.2,139.9c0,0.3,0,0.5-0.1,0.8h-7.7c0.2,1.4,1.2,2.1,2.5,2.1c0.9,0,1.7-0.4,2.2-1.2H87
		c-0.7,2.2-2.7,3.6-5,3.6c-3,0-5.3-2.3-5.3-5.4c0-3.1,2.3-5.4,5.3-5.4C85,134.6,87.2,137,87.2,139.9L87.2,139.9z M79.5,138.8h4.9
		c-0.4-1.2-1.3-1.9-2.5-1.9C80.7,136.9,79.8,137.6,79.5,138.8z M82.7,133.7h-2.1l1-2.9h2.9L82.7,133.7z"/>
	<path class="st0" d="M105.1,138.1c0,4.1-2.8,7.2-6.7,7.2c-3.9,0-6.8-2.9-6.8-6.9c0-3.9,2.9-6.9,6.8-6.9c3.3,0,6,2.1,6.6,5H102
		c-0.6-1.4-2-2.3-3.6-2.3c-2.3,0-3.9,1.7-3.9,4.2c0,2.4,1.6,4.1,3.9,4.1c1.7,0,3.2-0.9,3.7-2.3h-3.9v-2.2L105.1,138.1L105.1,138.1z"
		/>
	<path class="st0" d="M112.4,134.8v2.6h-1.2c-1.6,0-2.2,0.7-2.2,2.4v5.3h-2.8v-10.2h1.8l0.5,1.2c0.7-0.9,1.6-1.3,2.9-1.3H112.4z"/>
	<path class="st0" d="M122.8,140.7h-7.7c0.2,1.4,1.1,2.1,2.5,2.1c0.9,0,1.7-0.4,2.2-1.2h2.9c-0.7,2.2-2.7,3.6-5,3.6
		c-3,0-5.3-2.3-5.3-5.4c0-3.1,2.3-5.4,5.3-5.4c3.1,0,5.3,2.4,5.3,5.3C122.8,140.2,122.8,140.4,122.8,140.7z M115.2,138.8h4.9
		c-0.4-1.2-1.3-1.9-2.5-1.9C116.4,136.9,115.5,137.6,115.2,138.8z"/>
	<path class="st0" d="M133.6,138.8v6.2h-2.8v-5.7c0-1.5-0.6-2.3-1.8-2.3c-1.4,0-2.3,1-2.3,2.6v5.3H124v-10.2h1.9l0.5,1.3
		c0.8-0.9,2-1.5,3.4-1.5C132.1,134.6,133.6,136.3,133.6,138.8z"/>
	<path class="st0" d="M134.7,139.9c0-3.1,2.3-5.4,5.5-5.4c3.1,0,5.5,2.3,5.5,5.4c0,3.1-2.4,5.4-5.5,5.4
		C137,145.3,134.7,143,134.7,139.9z M142.9,139.9c0-1.6-1.1-2.8-2.7-2.8s-2.7,1.1-2.7,2.8c0,1.6,1.1,2.8,2.7,2.8
		S142.9,141.6,142.9,139.9z"/>
	<path class="st0" d="M157.8,139.9c0,3.1-2.2,5.4-5.3,5.4c-1.2,0-2.3-0.4-3.2-1.1l-0.3,0.9h-2v-13.8h2.8v4.2
		c0.8-0.5,1.7-0.8,2.8-0.8C155.5,134.6,157.8,136.8,157.8,139.9z M155,139.9c0-1.6-1.2-2.8-2.8-2.8s-2.8,1.2-2.8,2.8
		c0,1.6,1.2,2.8,2.8,2.8S155,141.5,155,139.9z"/>
	<path class="st0" d="M159,131.2h2.8V145H159V131.2z"/>
	<path class="st0" d="M173.4,140.7h-7.7c0.2,1.4,1.1,2.1,2.5,2.1c1,0,1.7-0.4,2.2-1.2h2.9c-0.7,2.2-2.7,3.6-5,3.6
		c-3,0-5.3-2.3-5.3-5.4c0-3.1,2.3-5.4,5.3-5.4c3.1,0,5.3,2.4,5.3,5.3C173.5,140.2,173.5,140.4,173.4,140.7z M165.8,138.8h4.9
		c-0.4-1.2-1.3-1.9-2.5-1.9C167,136.9,166.1,137.6,165.8,138.8z"/>
	<path class="st0" d="M185.9,142.5h-5.2l-0.9,2.5h-3l5.2-13.2h2.7L190,145h-3.1L185.9,142.5z M181.6,140h3.5l-1.7-4.7L181.6,140z"/>
	<path class="st0" d="M190.7,131.2h2.8V145h-2.8V131.2z"/>
	<path class="st0" d="M206.2,139.9c0,3.1-2.3,5.4-5.3,5.4c-1.1,0-2-0.3-2.8-0.9v4.2h-2.8v-13.8h1.8l0.5,0.9c0.9-0.8,2-1.2,3.3-1.2
		C203.9,134.6,206.2,136.8,206.2,139.9z M203.4,139.9c0-1.6-1.2-2.8-2.8-2.8s-2.8,1.2-2.8,2.8s1.2,2.8,2.8,2.8
		C202.2,142.7,203.4,141.5,203.4,139.9z"/>
	<path class="st0" d="M217.2,140.7h-7.7c0.2,1.4,1.1,2.1,2.5,2.1c1,0,1.7-0.4,2.2-1.2h2.9c-0.7,2.2-2.7,3.6-5,3.6
		c-3,0-5.3-2.3-5.3-5.4c0-3.1,2.3-5.4,5.3-5.4c3.1,0,5.3,2.4,5.3,5.3C217.3,140.2,217.3,140.4,217.2,140.7z M209.6,138.8h4.9
		c-0.4-1.2-1.3-1.9-2.5-1.9C210.8,136.9,209.9,137.6,209.6,138.8z"/>
	<path class="st0" d="M217.8,141.7h2.7c0,0.9,0.7,1.4,1.7,1.4c0.8,0,1.4-0.3,1.4-1c0-0.7-0.9-0.9-2-1.1c-1.6-0.3-3.7-0.7-3.7-3.1
		c0-1.9,1.6-3.3,4.1-3.3s4.1,1.4,4.1,3.4h-2.6c0-0.8-0.6-1.2-1.5-1.2c-0.9,0-1.4,0.4-1.4,1c0,0.7,0.9,0.8,1.9,1
		c1.7,0.3,3.8,0.6,3.8,3.1c0,2.1-1.7,3.4-4.3,3.4C219.5,145.3,217.8,143.8,217.8,141.7z"/>
</g>
<g>
	<path class="st1" d="M189.6,50.4c4.7,8.2,9.4,16.2,14.1,24.4c-9.4,0-18.7,0-28.1,0C180.3,66.6,184.9,58.5,189.6,50.4z"/>
	<path class="st0" d="M189.6,0c12.4,21.4,24.6,42.7,37,64.2c-0.6,0-15.4,0-15.4,0c-6.7-11.6-14.1-24.6-20.8-36.2
		c-0.3-0.4-0.5-0.8-0.8-1.4c-0.3,0.5-0.6,1-0.8,1.4c-6.7,11.6-14.2,24.5-20.8,36.2c0,0-14.7,0-15.4,0C165,42.7,177.3,21.4,189.6,0z"
		/>
</g>
</svg>
